Coordinates
version=1
nRows=14
nColumns=40
inDegrees=yes

Units are S.I. units (second, meters, Newtons, ...)
If the header above contains a line with 'inDegrees', this indicates whether rotational values are in degrees (yes) or radians (no).

endheader
time	pelvis_tilt	pelvis_list	pelvis_rotation	pelvis_tx	pelvis_ty	pelvis_tz	hip_flexion_r	hip_adduction_r	hip_rotation_r	knee_angle_r	knee_angle_r_beta	ankle_angle_r	subtalar_angle_r	mtp_angle_r	hip_flexion_l	hip_adduction_l	hip_rotation_l	knee_angle_l	knee_angle_l_beta	ankle_angle_l	subtalar_angle_l	mtp_angle_l	lumbar_extension	lumbar_bending	lumbar_rotation	arm_flex_r	arm_add_r	arm_rot_r	elbow_flex_r	pro_sup_r	wrist_flex_r	wrist_dev_r	arm_flex_l	arm_add_l	arm_rot_l	elbow_flex_l	pro_sup_l	wrist_flex_l	wrist_dev_l
      1.51000000	     -6.05660439	     -2.30059396	     -1.27049545	      0.19146713	      0.42358592	     -1.21004845	     99.47931184	    -47.31847033	     23.97498229	    125.55856236	      2.19141032	     38.54463521	     15.22956175	      0.00000000	    109.82504649	    -49.38478831	     34.81813734	    125.06354485	      2.18277063	     35.46624589	     26.81789854	      0.00000000	    -31.67612316	      3.14635480	      1.24688962	     44.99991652	    -15.00000001	     44.99991652	     75.00017585	     45.00000026	      0.00000000	      0.00000000	     44.99991652	    -15.00000001	     44.99991652	     75.00017585	     45.00000026	      0.00000000	      0.00000000
      1.51500000	     -5.95236317	     -2.13687489	     -1.23950988	      0.19143849	      0.42282549	     -1.21002030	     99.78232936	    -47.32701043	     24.47787492	    125.68106833	      2.19354845	     38.58550916	     15.43973497	      0.00000000	    109.66188916	    -49.39955105	     34.65723938	    125.17281533	      2.18467776	     35.48831646	     26.74697551	      0.00000000	    -31.81585329	      2.98195622	      1.20611128	     44.99991720	    -15.00000001	     44.99991720	     75.00017585	     45.00000026	      0.00000000	      0.00000000	     44.99991720	    -15.00000001	     44.99991720	     75.00017585	     45.00000026	      0.00000000	      0.00000000
      1.52000000	     -5.86196645	     -1.91465886	     -1.22759643	      0.19139744	      0.42207866	     -1.20988488	    100.20188513	    -47.29621618	     25.04076498	    125.80219303	      2.19566247	     38.56690135	     15.40023640	      0.00000000	    109.35800377	    -49.42989640	     34.41538274	    125.25996173	      2.18619875	     35.58229268	     26.87647137	      0.00000000	    -31.94432725	      2.70904536	      1.18069212	     44.99991783	    -15.00000000	     44.99991783	     75.00017585	     45.00000026	      0.00000000	      0.00000000	     44.99991783	    -15.00000000	     44.99991783	     75.00017585	     45.00000026	      0.00000000	      0.00000000
      1.52500000	     -5.65065948	     -2.18672180	     -1.24228799	      0.19145975	      0.42173615	     -1.21023683	     99.69775413	    -47.36717980	     24.65992520	    125.84399889	      2.19639212	     38.61038703	     15.50391402	      0.00000000	    109.66173774	    -49.40008781	     35.02081834	    125.38790634	      2.18843181	     35.66241440	     26.90208028	      0.00000000	    -32.25207029	      3.03833921	      1.30160336	     44.99991838	    -15.00000000	     44.99991838	     75.00017585	     45.00000026	      0.00000000	      0.00000000	     44.99991838	    -15.00000000	     44.99991838	     75.00017585	     45.00000026	      0.00000000	      0.00000000
      1.53000000	     -5.57748933	     -2.20538477	     -1.24817782	      0.19146824	      0.42098910	     -1.21028287	     99.75511454	    -47.36028330	     24.80237729	    125.94810293	      2.19820908	     38.63527453	     15.57749722	      0.00000000	    109.80267104	    -49.39833333	     35.20375992	    125.48644805	      2.19015169	     35.64529667	     26.93295498	      0.00000000	    -32.36696623	      3.07116291	      1.35529679	     44.99991892	    -15.00000000	     44.99991892	     75.00017585	     45.00000026	      0.00000000	      0.00000000	     44.99991892	    -15.00000000	     44.99991892	     75.00017585	     45.00000026	      0.00000000	      0.00000000
      1.53500000	     -5.47496259	     -2.24845779	     -1.25315658	      0.19146672	      0.42031110	     -1.21036498	     99.75582291	    -47.36628595	     24.86595841	    126.05382565	      2.20005429	     38.64102387	     15.47966987	      0.00000000	    109.89499948	    -49.38214491	     35.42766186	    125.58613060	      2.19189147	     35.73061619	     27.03523379	      0.00000000	    -32.51119417	      3.10811579	      1.37719063	     44.99991941	    -15.00000000	     44.99991941	     75.00017585	     45.00000026	      0.00000000	      0.00000000	     44.99991941	    -15.00000000	     44.99991941	     75.00017585	     45.00000026	      0.00000000	      0.00000000
      1.54000000	     -5.36595960	     -2.21317474	     -1.24548449	      0.19148357	      0.41973176	     -1.21039299	     99.81960185	    -47.36545649	     25.08113408	    126.15035510	      2.20173905	     38.65881986	     15.59363860	      0.00000000	    109.86525959	    -49.39540778	     35.48637866	    125.67988220	      2.19352775	     35.77432927	     27.04924872	      0.00000000	    -32.66657999	      3.07253064	      1.40009468	     44.99991986	    -15.00000000	     44.99991986	     75.00017585	     45.00000026	      0.00000000	      0.00000000	     44.99991986	    -15.00000000	     44.99991986	     75.00017585	     45.00000026	      0.00000000	      0.00000000
      1.54500000	     -5.34224640	     -1.82275794	     -1.22146937	      0.19138553	      0.41885601	     -1.21007587	    100.56140057	    -47.28526686	     25.94683435	    126.29427762	      2.20425097	     38.60922157	     15.50434020	      0.00000000	    109.40338313	    -49.44342151	     34.95189203	    125.75094875	      2.19476809	     35.88588364	     27.16415605	      0.00000000	    -32.69639187	      2.60476692	      1.28267127	     44.99992026	    -15.00000000	     44.99992026	     75.00017585	     45.00000026	      0.00000000	      0.00000000	     44.99992026	    -15.00000000	     44.99992026	     75.00017585	     45.00000026	      0.00000000	      0.00000000
      1.55000000	     -5.13174497	     -2.17379935	     -1.23004350	      0.19147040	      0.41863263	     -1.21050321	     99.92244173	    -47.38942908	     25.41927711	    126.31783758	      2.20466217	     38.69035303	     15.59177002	      0.00000000	    109.80472943	    -49.39044446	     35.65462160	    125.86382463	      2.19673815	     35.91119435	     27.16635790	      0.00000000	    -33.00309021	      3.02588810	      1.42494314	     44.99992062	    -15.00000000	     44.99992062	     75.00017585	     45.00000026	      0.00000000	      0.00000000	     44.99992062	    -15.00000000	     44.99992062	     75.00017585	     45.00000026	      0.00000000	      0.00000000
      1.55500000	     -5.01782688	     -2.19444769	     -1.23904213	      0.19144221	      0.41807344	     -1.21055589	     99.90357631	    -47.36720277	     25.51179458	    126.41070396	      2.20628299	     38.69177595	     15.59624186	      0.00000000	    109.85042129	    -49.39594314	     35.82625939	    125.95629067	      2.19835199	     35.97402544	     27.21420740	      0.00000000	    -33.16847038	      3.04622692	      1.45663132	     44.99992096	    -15.00000000	     44.99992096	     75.00017585	     45.00000026	      0.00000000	      0.00000000	     44.99992096	    -15.00000000	     44.99992096	     75.00017585	     45.00000026	      0.00000000	      0.00000000
      1.56000000	     -4.92030218	     -2.18386072	     -1.23804108	      0.19144058	      0.41749833	     -1.21059257	     99.95876122	    -47.36613244	     25.67035876	    126.50124031	      2.20786315	     38.71285116	     15.61851358	      0.00000000	    109.86013087	    -49.39599477	     35.92796854	    126.04151498	      2.19983943	     36.01475059	     27.24926568	      0.00000000	    -33.30648581	      3.02430598	      1.47255614	     44.99992127	    -14.99999999	     44.99992127	     75.00017585	     45.00000026	      0.00000000	      0.00000000	     44.99992127	    -14.99999999	     44.99992127	     75.00017585	     45.00000026	      0.00000000	      0.00000000
      1.56500000	     -4.80173448	     -2.15699674	     -1.22565322	      0.19142939	      0.41697832	     -1.21064125	    100.01460016	    -47.38264041	     25.85893999	    126.58129814	      2.20926042	     38.72488721	     15.66468186	      0.00000000	    109.81951827	    -49.39039927	     35.98878872	    126.12390601	      2.20127743	     36.06360141	     27.29643169	      0.00000000	    -33.46717166	      2.99977534	      1.48892285	     44.99992155	    -14.99999999	     44.99992155	     75.00017585	     45.00000026	      0.00000000	      0.00000000	     44.99992155	    -14.99999999	     44.99992155	     75.00017585	     45.00000026	      0.00000000	      0.00000000
      1.57000000	     -4.72336093	     -2.17280579	     -1.21145839	      0.19148693	      0.41637441	     -1.21071658	    100.04401512	    -47.39953106	     25.96366928	    126.67306656	      2.21086209	     38.73774138	     15.66003041	      0.00000000	    109.89463440	    -49.37909599	     36.14754121	    126.22558325	      2.20305203	     36.07917600	     27.35001827	      0.00000000	    -33.57363788	      3.02577185	      1.50362057	     44.99992183	    -14.99999999	     44.99992183	     75.00017585	     45.00000026	      0.00000000	      0.00000000	     44.99992183	    -14.99999999	     44.99992183	     75.00017585	     45.00000026	      0.00000000	      0.00000000
      1.57500000	     -4.62496030	     -2.13259050	     -1.21235684	      0.19145733	      0.41585881	     -1.21068821	    100.13056615	    -47.38923835	     26.16317982	    126.76352180	      2.21244083	     38.75353605	     15.75587080	      0.00000000	    109.87109466	    -49.39142429	     36.19010158	    126.28922902	      2.20416286	     36.10427529	     27.34012045	      0.00000000	    -33.71398253	      2.96092705	      1.49194030	     44.99992206	    -14.99999999	     44.99992206	     75.00017585	     45.00000026	      0.00000000	      0.00000000	     44.99992206	    -14.99999999	     44.99992206	     75.00017585	     45.00000026	      0.00000000	      0.00000000
